<svg height="512" viewBox="0 0 64 64" width="512" xmlns="http://www.w3.org/2000/svg"><g id="Flat"><path d="m12 37v-32a2 2 0 0 1 2-2h26l12 12v22" fill="#d6d6d4"/><path d="m52 57v2a2 2 0 0 1 -2 2h-36a2 2 0 0 1 -2-2v-2" fill="#d6d6d4"/><path d="m40 3v12h12" fill="#44546c"/><rect fill="#f35244" height="20" rx="2" width="46" x="9" y="37"/><path d="m46 26h-28a1 1 0 0 1 0-2h28a1 1 0 0 1 0 2z" fill="#44546c"/><path d="m46 32h-28a1 1 0 0 1 0-2h28a1 1 0 0 1 0 2z" fill="#44546c"/><g fill="#d6d6d4"><path d="m21.16 42.38a.62.62 0 0 1 .34-.58 1.48 1.48 0 0 1 .76-.19h3.29a5.2 5.2 0 0 1 1.18.13 2.7 2.7 0 0 1 1 .45 2.24 2.24 0 0 1 .73.87 3.82 3.82 0 0 1 -.09 3 2.1 2.1 0 0 1 -1 .91 4.2 4.2 0 0 1 .67.34 1.74 1.74 0 0 1 .52.49 2.18 2.18 0 0 1 .34.72 3.86 3.86 0 0 1 .12 1v.34a4.5 4.5 0 0 1 -.25 1.61 2.6 2.6 0 0 1 -1.71 1.67 4.38 4.38 0 0 1 -1.27.18h-3.53a1.28 1.28 0 0 1 -.81-.22.67.67 0 0 1 -.29-.53zm2.5 3.62h1.69a.76.76 0 0 0 .69-.34 1.38 1.38 0 0 0 .22-.77 1.41 1.41 0 0 0 -.22-.77.75.75 0 0 0 -.69-.35h-1.69zm1.61 5.15a1.25 1.25 0 0 0 .94-.35 1.58 1.58 0 0 0 .34-1.13v-.26a1.57 1.57 0 0 0 -.34-1.15 1.28 1.28 0 0 0 -.94-.33h-1.61v3.22z"/><path d="m30.37 42.36a.61.61 0 0 1 .39-.58 2.26 2.26 0 0 1 1.72 0 .6.6 0 0 1 .4.58v10.24a.61.61 0 0 1 -.4.58 2 2 0 0 1 -1.72 0 .62.62 0 0 1 -.39-.58z"/><path d="m41.58 53.37a2.32 2.32 0 0 1 -.8-.13 1.08 1.08 0 0 1 -.6-.54l-3-5.57v5.47a.63.63 0 0 1 -.4.58 2 2 0 0 1 -1.72 0 .62.62 0 0 1 -.39-.58v-10.22a.62.62 0 0 1 .39-.59 2 2 0 0 1 .86-.18 4.73 4.73 0 0 1 .58 0 1.2 1.2 0 0 1 .45.15 1.41 1.41 0 0 1 .4.38 4.76 4.76 0 0 1 .42.69l2.61 5v-5.47a.61.61 0 0 1 .39-.58 2.24 2.24 0 0 1 .86-.17 2.2 2.2 0 0 1 .86.17.6.6 0 0 1 .4.58v10.24a.61.61 0 0 1 -.4.58 1.9 1.9 0 0 1 -.91.19z"/></g></g></svg>