<svg height="512" viewBox="0 0 64 64" width="512" xmlns="http://www.w3.org/2000/svg"><g id="Flat"><path d="m12 37v-32a2 2 0 0 1 2-2h26l12 12v22" fill="#d6d6d4"/><path d="m52 57v2a2 2 0 0 1 -2 2h-36a2 2 0 0 1 -2-2v-2" fill="#d6d6d4"/><path d="m40 3v12h12" fill="#44546c"/><rect fill="#f35244" height="20" rx="2" width="46" x="9" y="37"/><path d="m46 26h-28a1 1 0 0 1 0-2h28a1 1 0 0 1 0 2z" fill="#44546c"/><path d="m46 32h-28a1 1 0 0 1 0-2h28a1 1 0 0 1 0 2z" fill="#44546c"/><g fill="#d6d6d4"><path d="m22 46.52h2.41a.65.65 0 0 1 .57.29 1.32 1.32 0 0 1 .19.69 1.26 1.26 0 0 1 -.18.63.62.62 0 0 1 -.58.32h-2.41v2.73h4.31a.6.6 0 0 1 .56.33 1.51 1.51 0 0 1 .2.78 1.62 1.62 0 0 1 -.18.74.6.6 0 0 1 -.58.34h-5.77a1.44 1.44 0 0 1 -.75-.19.62.62 0 0 1 -.34-.58v-10.22a.62.62 0 0 1 .34-.58 1.44 1.44 0 0 1 .75-.19h5.73a.6.6 0 0 1 .58.34 1.59 1.59 0 0 1 .18.74 1.51 1.51 0 0 1 -.2.78.6.6 0 0 1 -.56.33h-4.27z"/><path d="m32 49.22-2.35 4a.42.42 0 0 1 -.24.19.86.86 0 0 1 -.36.07 1.65 1.65 0 0 1 -.55-.1 2.14 2.14 0 0 1 -.55-.26 2 2 0 0 1 -.41-.4.79.79 0 0 1 -.16-.48.86.86 0 0 1 .15-.45l2.78-4.3-2.67-4.29a.92.92 0 0 1 -.16-.5.8.8 0 0 1 .15-.47 1.41 1.41 0 0 1 .39-.38 2.14 2.14 0 0 1 .53-.25 1.81 1.81 0 0 1 .55-.09.79.79 0 0 1 .76.42l2.14 3.73 2.14-3.73a.79.79 0 0 1 .76-.42 1.79 1.79 0 0 1 .54.09 1.85 1.85 0 0 1 .53.25 1.33 1.33 0 0 1 .4.38.8.8 0 0 1 .15.47.92.92 0 0 1 -.16.5l-2.67 4.28 2.78 4.3a.78.78 0 0 1 0 .93 2 2 0 0 1 -.41.4 2.14 2.14 0 0 1 -.55.26 1.66 1.66 0 0 1 -.56.1.84.84 0 0 1 -.35-.07.42.42 0 0 1 -.24-.19z"/><path d="m40.13 46.52h2.41a.62.62 0 0 1 .56.29 1.24 1.24 0 0 1 .2.69 1.26 1.26 0 0 1 -.18.63.62.62 0 0 1 -.58.32h-2.41v2.73h4.31a.61.61 0 0 1 .56.33 1.51 1.51 0 0 1 .2.78 1.62 1.62 0 0 1 -.2.71.6.6 0 0 1 -.58.34h-5.71a1.51 1.51 0 0 1 -.76-.19.63.63 0 0 1 -.33-.58v-10.19a.63.63 0 0 1 .38-.58 1.51 1.51 0 0 1 .76-.19h5.73a.6.6 0 0 1 .51.39 1.59 1.59 0 0 1 .18.74 1.51 1.51 0 0 1 -.2.78.61.61 0 0 1 -.56.33h-4.29z"/></g></g></svg>