<svg height="512" viewBox="0 0 64 64" width="512" xmlns="http://www.w3.org/2000/svg"><g id="Flat"><path d="m12 37v-32a2 2 0 0 1 2-2h26l12 12v22" fill="#d6d6d4"/><path d="m52 57v2a2 2 0 0 1 -2 2h-36a2 2 0 0 1 -2-2v-2" fill="#d6d6d4"/><path d="m40 3v12h12" fill="#44546c"/><rect fill="#ffa912" height="20" rx="2" width="46" x="9" y="37"/><path d="m46 26h-28a1 1 0 0 1 0-2h28a1 1 0 0 1 0 2z" fill="#44546c"/><path d="m46 32h-28a1 1 0 0 1 0-2h28a1 1 0 0 1 0 2z" fill="#44546c"/><g fill="#d6d6d4"><path d="m27.25 45.24a4.07 4.07 0 0 0 0-.46 1.08 1.08 0 0 0 -.25-.48 1.16 1.16 0 0 0 -.42-.36 1.77 1.77 0 0 0 -.8-.14 1.42 1.42 0 0 0 -1.07.39 1.71 1.71 0 0 0 -.38 1.22v4.26a1.73 1.73 0 0 0 .38 1.22 1.39 1.39 0 0 0 1.05.39 1.45 1.45 0 0 0 1.07-.39 1.73 1.73 0 0 0 .38-1.22v-.55h-.91a.65.65 0 0 1 -.56-.29 1.21 1.21 0 0 1 -.19-.67 1.18 1.18 0 0 1 .19-.66.62.62 0 0 1 .56-.31h2.7a.68.68 0 0 1 .56.24.82.82 0 0 1 .19.55v1.69a4.52 4.52 0 0 1 -.3 1.76 3.1 3.1 0 0 1 -2.09 1.84 6.08 6.08 0 0 1 -1.57.2 5.93 5.93 0 0 1 -1.55-.2 3.41 3.41 0 0 1 -1.24-.66 3.19 3.19 0 0 1 -.83-1.18 4.33 4.33 0 0 1 -.31-1.76v-4.26a4.4 4.4 0 0 1 .31-1.76 3.11 3.11 0 0 1 .83-1.18 3.19 3.19 0 0 1 1.23-.66 5.21 5.21 0 0 1 1.49-.2 5.74 5.74 0 0 1 1.6.21 3.72 3.72 0 0 1 1.28.62 2.94 2.94 0 0 1 .86 1 3 3 0 0 1 .3 1.37 1.2 1.2 0 0 1 -.3 1 1.62 1.62 0 0 1 -.95.23 2.1 2.1 0 0 1 -.88-.16.63.63 0 0 1 -.38-.64z"/><path d="m31.21 42.36a.6.6 0 0 1 .4-.58 2.2 2.2 0 0 1 .86-.17 2.24 2.24 0 0 1 .86.17.61.61 0 0 1 .39.58v10.24a.62.62 0 0 1 -.39.58 1.93 1.93 0 0 1 -.86.19 1.9 1.9 0 0 1 -.86-.19.61.61 0 0 1 -.4-.58z"/><path d="m35.46 42.38a.62.62 0 0 1 .34-.58 1.44 1.44 0 0 1 .75-.19h5.59a.6.6 0 0 1 .58.34 1.59 1.59 0 0 1 .18.74 1.51 1.51 0 0 1 -.2.78.61.61 0 0 1 -.56.33h-4.14v2.72h2.4a.63.63 0 0 1 .56.29 1.24 1.24 0 0 1 .2.69 1.26 1.26 0 0 1 -.18.63.62.62 0 0 1 -.58.32h-2.4v4.15a.62.62 0 0 1 -.39.58 2.06 2.06 0 0 1 -1.73 0 .62.62 0 0 1 -.39-.58z"/></g></g></svg>