<svg height="512" viewBox="0 0 64 64" width="512" xmlns="http://www.w3.org/2000/svg"><g id="Flat"><path d="m12 37v-32a2 2 0 0 1 2-2h26l12 12v22" fill="#d6d6d4"/><path d="m52 57v2a2 2 0 0 1 -2 2h-36a2 2 0 0 1 -2-2v-2" fill="#d6d6d4"/><path d="m40 3v12h12" fill="#44546c"/><rect fill="#348fd9" height="20" rx="2" width="46" x="9" y="37"/><path d="m46 26h-28a1 1 0 0 1 0-2h28a1 1 0 0 1 0 2z" fill="#44546c"/><path d="m46 32h-28a1 1 0 0 1 0-2h28a1 1 0 0 1 0 2z" fill="#44546c"/><g fill="#d6d6d4"><path d="m21.77 42.36a.61.61 0 0 1 .39-.58 2.26 2.26 0 0 1 1.72 0 .62.62 0 0 1 .4.58v10.24a.63.63 0 0 1 -.4.58 2 2 0 0 1 -1.72 0 .62.62 0 0 1 -.39-.58z"/><path d="m29.28 51.28a2.74 2.74 0 0 0 .56-.06 1.66 1.66 0 0 0 .5-.18 1.15 1.15 0 0 0 .36-.33.81.81 0 0 0 .14-.49 1 1 0 0 0 -.38-.82 4.78 4.78 0 0 0 -.94-.61c-.37-.18-.78-.38-1.23-.58a5.87 5.87 0 0 1 -1.23-.73 3.68 3.68 0 0 1 -.94-1.06 3.12 3.12 0 0 1 .88-4.14 3.93 3.93 0 0 1 1.32-.58 5.93 5.93 0 0 1 1.5-.19c.21 0 .5 0 .86.05a6.37 6.37 0 0 1 1.06.19 2.69 2.69 0 0 1 .9.43.88.88 0 0 1 .38.75 2.09 2.09 0 0 1 -.05.38 1.85 1.85 0 0 1 -.18.44 1.17 1.17 0 0 1 -.31.35.73.73 0 0 1 -.46.15 1 1 0 0 1 -.41-.1l-.41-.21a5.64 5.64 0 0 0 -.56-.21 3.1 3.1 0 0 0 -.82-.09 2 2 0 0 0 -1.24.29.84.84 0 0 0 -.37.67.83.83 0 0 0 .38.68 5.33 5.33 0 0 0 .94.53l1.23.55a5.2 5.2 0 0 1 1.23.77 3.88 3.88 0 0 1 1.01 1.14 3.33 3.33 0 0 1 .35 1.73 3.74 3.74 0 0 1 -.3 1.54 3.07 3.07 0 0 1 -.83 1.12 3.83 3.83 0 0 1 -1.28.68 5.54 5.54 0 0 1 -1.61.23 6.56 6.56 0 0 1 -1.5-.17 5.62 5.62 0 0 1 -1.24-.47 2.71 2.71 0 0 1 -.83-.67 1.13 1.13 0 0 1 -.22-1.26 2.3 2.3 0 0 1 .23-.44 1.37 1.37 0 0 1 .35-.33.66.66 0 0 1 .42-.14.88.88 0 0 1 .54.18l.55.41a3.81 3.81 0 0 0 .69.41 2.16 2.16 0 0 0 .96.19z"/><path d="m38.4 53.47a5.93 5.93 0 0 1 -1.55-.2 3.41 3.41 0 0 1 -1.25-.66 3.19 3.19 0 0 1 -.83-1.18 4.33 4.33 0 0 1 -.31-1.76v-4.26a4.4 4.4 0 0 1 .31-1.76 3.05 3.05 0 0 1 2.08-1.84 5.53 5.53 0 0 1 1.55-.2 5.68 5.68 0 0 1 1.57.2 3.07 3.07 0 0 1 1.25.66 3.13 3.13 0 0 1 .84 1.18 4.59 4.59 0 0 1 .3 1.76v4.26a4.52 4.52 0 0 1 -.3 1.76 3.21 3.21 0 0 1 -.84 1.18 3.33 3.33 0 0 1 -1.25.66 6.08 6.08 0 0 1 -1.57.2zm1.45-8.06a1.72 1.72 0 0 0 -.38-1.23 1.43 1.43 0 0 0 -1.07-.38 1.38 1.38 0 0 0 -1 .38 1.72 1.72 0 0 0 -.4 1.23v4.26a1.68 1.68 0 0 0 .38 1.22 1.39 1.39 0 0 0 1 .39 1.44 1.44 0 0 0 1.07-.39 1.68 1.68 0 0 0 .38-1.22z"/></g></g></svg>