<svg height="512" viewBox="0 0 64 64" width="512" xmlns="http://www.w3.org/2000/svg"><g id="Flat"><path d="m12 37v-32a2 2 0 0 1 2-2h26l12 12v22" fill="#d6d6d4"/><path d="m52 57v2a2 2 0 0 1 -2 2h-36a2 2 0 0 1 -2-2v-2" fill="#d6d6d4"/><path d="m40 3v12h12" fill="#44546c"/><rect fill="#f35244" height="20" rx="2" width="46" x="9" y="37"/><path d="m46 26h-28a1 1 0 0 1 0-2h28a1 1 0 0 1 0 2z" fill="#44546c"/><path d="m46 32h-28a1 1 0 0 1 0-2h28a1 1 0 0 1 0 2z" fill="#44546c"/><g fill="#d6d6d4"><path d="m26.37 41.61a.61.61 0 0 1 .63.39 1.8 1.8 0 0 1 .17.76 1.55 1.55 0 0 1 -.19.8.61.61 0 0 1 -.56.34h-2.27v8.7a.61.61 0 0 1 -.4.58 2 2 0 0 1 -1.72 0 .62.62 0 0 1 -.39-.58v-8.74h-2.22a.62.62 0 0 1 -.57-.34 1.55 1.55 0 0 1 -.19-.8 1.67 1.67 0 0 1 .18-.76.6.6 0 0 1 .58-.35z"/><path d="m32 49.22-2.35 4a.42.42 0 0 1 -.24.19.86.86 0 0 1 -.36.07 1.65 1.65 0 0 1 -.55-.1 2.14 2.14 0 0 1 -.55-.26 2 2 0 0 1 -.41-.4.79.79 0 0 1 -.16-.48.86.86 0 0 1 .15-.45l2.78-4.3-2.67-4.29a.92.92 0 0 1 -.16-.5.8.8 0 0 1 .15-.47 1.41 1.41 0 0 1 .39-.38 2.14 2.14 0 0 1 .53-.25 1.81 1.81 0 0 1 .55-.09.79.79 0 0 1 .76.42l2.14 3.73 2.14-3.73a.79.79 0 0 1 .76-.42 1.79 1.79 0 0 1 .54.09 1.85 1.85 0 0 1 .53.25 1.33 1.33 0 0 1 .4.38.8.8 0 0 1 .15.47.92.92 0 0 1 -.16.5l-2.67 4.28 2.78 4.3a.78.78 0 0 1 0 .93 2 2 0 0 1 -.41.4 2.14 2.14 0 0 1 -.55.26 1.66 1.66 0 0 1 -.56.1.84.84 0 0 1 -.35-.07.42.42 0 0 1 -.24-.19z"/><path d="m44.58 41.61a.6.6 0 0 1 .58.35 1.67 1.67 0 0 1 .18.76 1.55 1.55 0 0 1 -.19.8.62.62 0 0 1 -.57.34h-2.22v8.74a.62.62 0 0 1 -.39.58 2 2 0 0 1 -1.72 0 .61.61 0 0 1 -.4-.58v-8.74h-2.22a.61.61 0 0 1 -.56-.34 1.55 1.55 0 0 1 -.19-.8 1.66 1.66 0 0 1 .17-.76.61.61 0 0 1 .58-.35z"/></g></g></svg>