<svg height="512" viewBox="0 0 64 64" width="512" xmlns="http://www.w3.org/2000/svg"><g id="Flat"><path d="m12 37v-32a2 2 0 0 1 2-2h26l12 12v22" fill="#d6d6d4"/><path d="m52 57v2a2 2 0 0 1 -2 2h-36a2 2 0 0 1 -2-2v-2" fill="#d6d6d4"/><path d="m40 3v12h12" fill="#44546c"/><rect fill="#7eb457" height="20" rx="2" width="46" x="9" y="37"/><path d="m46 26h-28a1 1 0 0 1 0-2h28a1 1 0 0 1 0 2z" fill="#44546c"/><path d="m46 32h-28a1 1 0 0 1 0-2h28a1 1 0 0 1 0 2z" fill="#44546c"/><g fill="#d6d6d4"><path d="m23.75 49.22-2.35 4a.42.42 0 0 1 -.24.19.81.81 0 0 1 -.35.07 1.7 1.7 0 0 1 -.56-.1 1.93 1.93 0 0 1 -.54-.26 1.79 1.79 0 0 1 -.42-.4.78.78 0 0 1 0-.93l2.78-4.3-2.68-4.29a.92.92 0 0 1 -.16-.5.8.8 0 0 1 .15-.47 1.61 1.61 0 0 1 .4-.38 1.92 1.92 0 0 1 .52-.25 1.82 1.82 0 0 1 .56-.09.78.78 0 0 1 .75.42l2.14 3.73 2.14-3.73a.8.8 0 0 1 .76-.42 1.91 1.91 0 0 1 .55.09 2 2 0 0 1 .53.25 1.41 1.41 0 0 1 .39.38.8.8 0 0 1 .15.47.92.92 0 0 1 -.16.5l-2.67 4.28 2.79 4.3a.94.94 0 0 1 .14.45.79.79 0 0 1 -.16.48 1.74 1.74 0 0 1 -.41.4 2.14 2.14 0 0 1 -.55.26 1.65 1.65 0 0 1 -.55.1.86.86 0 0 1 -.36-.07.5.5 0 0 1 -.24-.19z"/><path d="m30.46 53.37a1.44 1.44 0 0 1 -.75-.19.62.62 0 0 1 -.34-.58v-10.24a.59.59 0 0 1 .39-.57 2.17 2.17 0 0 1 1.73 0 .59.59 0 0 1 .39.57v8.82h3.67a.58.58 0 0 1 .55.34 1.73 1.73 0 0 1 .17.76 1.66 1.66 0 0 1 -.17.75.58.58 0 0 1 -.55.34z"/><path d="m40.55 51.28a2.67 2.67 0 0 0 .56-.06 1.62 1.62 0 0 0 .51-.18 1.15 1.15 0 0 0 .36-.33.88.88 0 0 0 .13-.49 1.07 1.07 0 0 0 -.37-.82 5.2 5.2 0 0 0 -1-.61c-.37-.18-.78-.38-1.23-.58a5.87 5.87 0 0 1 -1.23-.73 3.83 3.83 0 0 1 -.94-1.06 3 3 0 0 1 -.34-1.58 3 3 0 0 1 1.31-2.56 3.77 3.77 0 0 1 1.32-.58 5.8 5.8 0 0 1 1.49-.19c.22 0 .5 0 .86.05a6.48 6.48 0 0 1 1.07.19 2.89 2.89 0 0 1 .9.43.9.9 0 0 1 .38.75 1.48 1.48 0 0 1 -.06.38 1.85 1.85 0 0 1 -.18.44 1 1 0 0 1 -.31.35.72.72 0 0 1 -.45.15.92.92 0 0 1 -.41-.1l-.42-.21a5.64 5.64 0 0 0 -.56-.21 3 3 0 0 0 -.82-.1 2 2 0 0 0 -1.24.3.87.87 0 0 0 -.37.67.83.83 0 0 0 .38.68 5.72 5.72 0 0 0 .94.53l1.23.55a5.47 5.47 0 0 1 1.24.77 4.22 4.22 0 0 1 .94 1.14 3.44 3.44 0 0 1 .39 1.73 3.74 3.74 0 0 1 -.3 1.54 3.21 3.21 0 0 1 -.84 1.12 3.83 3.83 0 0 1 -1.28.68 5.18 5.18 0 0 1 -1.61.23 6.69 6.69 0 0 1 -1.5-.17 5.35 5.35 0 0 1 -1.23-.47 2.64 2.64 0 0 1 -.84-.67 1.25 1.25 0 0 1 -.31-.78 1.19 1.19 0 0 1 .09-.44 2.3 2.3 0 0 1 .23-.44 1.56 1.56 0 0 1 .35-.33.69.69 0 0 1 .43-.14.92.92 0 0 1 .54.18l.54.41a3.59 3.59 0 0 0 .7.41 2.12 2.12 0 0 0 .95.15z"/></g></g></svg>