<svg height="512" viewBox="0 0 64 64" width="512" xmlns="http://www.w3.org/2000/svg"><g id="Flat"><path d="m12 37v-32a2 2 0 0 1 2-2h26l12 12v22" fill="#d6d6d4"/><path d="m52 57v2a2 2 0 0 1 -2 2h-36a2 2 0 0 1 -2-2v-2" fill="#d6d6d4"/><path d="m40 3v12h12" fill="#44546c"/><rect fill="#348fd9" height="20" rx="2" width="46" x="9" y="37"/><path d="m46 26h-28a1 1 0 0 1 0-2h28a1 1 0 0 1 0 2z" fill="#44546c"/><path d="m46 32h-28a1 1 0 0 1 0-2h28a1 1 0 0 1 0 2z" fill="#44546c"/><g fill="#d6d6d4"><path d="m22.31 49.22-2.35 4a.42.42 0 0 1 -.24.19.81.81 0 0 1 -.35.07 1.7 1.7 0 0 1 -.56-.1 1.93 1.93 0 0 1 -.54-.26 1.79 1.79 0 0 1 -.42-.4.78.78 0 0 1 0-.93l2.78-4.3-2.63-4.29a.92.92 0 0 1 -.16-.5.8.8 0 0 1 .15-.47 1.46 1.46 0 0 1 .4-.38 1.92 1.92 0 0 1 .52-.25 1.82 1.82 0 0 1 .56-.09.78.78 0 0 1 .75.42l2.14 3.73 2.14-3.73a.79.79 0 0 1 .76-.42 1.91 1.91 0 0 1 .55.09 2 2 0 0 1 .53.25 1.41 1.41 0 0 1 .39.38.8.8 0 0 1 .15.47.92.92 0 0 1 -.16.5l-2.72 4.28 2.79 4.3a.94.94 0 0 1 .14.45.79.79 0 0 1 -.16.48 1.74 1.74 0 0 1 -.41.4 2.14 2.14 0 0 1 -.55.26 1.65 1.65 0 0 1 -.55.1.86.86 0 0 1 -.36-.07.5.5 0 0 1 -.24-.19z"/><path d="m33.59 49.2a.75.75 0 0 1 -.38.37 1 1 0 0 1 -.45.1 1 1 0 0 1 -.44-.1.71.71 0 0 1 -.32-.37l-1.53-2.8v6.2a.61.61 0 0 1 -.4.58 1.87 1.87 0 0 1 -.86.19 1.93 1.93 0 0 1 -.86-.19.62.62 0 0 1 -.39-.58v-9.74a1.47 1.47 0 0 1 .1-.58 1.15 1.15 0 0 1 .28-.39 1.09 1.09 0 0 1 .41-.22 1.76 1.76 0 0 1 .46-.06 5.21 5.21 0 0 1 .6 0 1.1 1.1 0 0 1 .47.16 1.66 1.66 0 0 1 .43.38 4.44 4.44 0 0 1 .45.68l1.66 2.9 1.66-2.9a4.44 4.44 0 0 1 .45-.68 1.8 1.8 0 0 1 .42-.38 1.19 1.19 0 0 1 .48-.16 5.15 5.15 0 0 1 .59 0 1.41 1.41 0 0 1 .87.28 1.12 1.12 0 0 1 .39 1v9.71a.61.61 0 0 1 -.4.58 1.9 1.9 0 0 1 -.86.19 1.93 1.93 0 0 1 -.86-.19.62.62 0 0 1 -.39-.58v-6z"/><path d="m40.48 53.37a1.51 1.51 0 0 1 -.76-.19.63.63 0 0 1 -.33-.58v-10.24a.59.59 0 0 1 .39-.57 2.14 2.14 0 0 1 1.72 0 .58.58 0 0 1 .4.57v8.82h3.67a.56.56 0 0 1 .54.34 1.61 1.61 0 0 1 .18.76 1.54 1.54 0 0 1 -.18.75.56.56 0 0 1 -.54.34z"/></g></g></svg>