<svg clip-rule="evenodd" fill-rule="evenodd" height="512" image-rendering="optimizeQuality" shape-rendering="geometricPrecision" text-rendering="geometricPrecision" viewBox="0 0 512 512" width="512" xmlns="http://www.w3.org/2000/svg"><g id="Layer_x0020_1"><g id="_479232288"><g><g><path d="m75 436c-1 0-3 0-4-1-55-29-62-66-62-68v-1-72c0-2 0-4 2-5 1-2 3-2 5-2 38 4 54-10 54-10 3-3 7-3 9 0 1 0 16 14 54 10 2 0 4 0 5 2 2 1 3 3 3 5v72 1c-1 2-8 39-63 68-1 1-2 1-3 1zm-52-71c1 4 9 32 52 56 43-24 51-52 52-56v-64c-28 2-45-6-52-10-8 4-24 12-52 10z"/></g><g><path d="m61 384c-2 0-4-1-5-2l-16-16c-3-3-3-7 0-10 2-3 7-3 10 0l11 11 38-38c3-3 7-3 10 0 2 3 2 7 0 10l-43 43c-2 1-4 2-5 2z"/></g><g><path d="m496 512h-480c-4 0-7-3-7-7v-37c0-4 3-7 7-7h480c4 0 7 3 7 7v37c0 4-3 7-7 7zm-473-14h466v-23h-466z"/></g><g><path d="m472 475c-4 0-7-3-7-7v-454h-259v454c0 4-3 7-7 7s-7-3-7-7v-461c0-4 3-7 7-7h273c4 0 7 3 7 7v461c0 4-3 7-7 7z"/></g><g><path d="m408 475h-149c-4 0-7-3-7-7v-155c0-10 8-18 18-18h127c10 0 18 8 18 18v155c0 4-4 7-7 7zm-142-14h135v-148c0-2-2-4-4-4h-127c-3 0-4 2-4 4z"/></g><g><path d="m333 475c-4 0-7-3-7-7v-166c0-4 3-7 7-7s7 3 7 7v166c0 4-4 7-7 7z"/></g><g><g><path d="m278 85h-41c-4 0-7-3-7-7v-33c0-4 3-7 7-7h41c4 0 7 3 7 7v33c0 4-3 7-7 7zm-34-14h27v-19h-27z"/></g><g><path d="m356 85h-41c-4 0-7-3-7-7v-33c0-4 3-7 7-7h41c4 0 7 3 7 7v33c0 4-3 7-7 7zm-34-14h27v-19h-27z"/></g><g><path d="m434 85h-41c-4 0-7-3-7-7v-33c0-4 3-7 7-7h41c4 0 7 3 7 7v33c0 4-3 7-7 7zm-34-14h27v-19h-27z"/></g></g><g><g><path d="m278 147h-41c-4 0-7-3-7-7v-33c0-4 3-7 7-7h41c4 0 7 3 7 7v33c0 4-3 7-7 7zm-34-14h27v-19h-27z"/></g><g><path d="m356 147h-41c-4 0-7-3-7-7v-33c0-4 3-7 7-7h41c4 0 7 3 7 7v33c0 4-3 7-7 7zm-34-14h27v-19h-27z"/></g><g><path d="m434 147h-41c-4 0-7-3-7-7v-33c0-4 3-7 7-7h41c4 0 7 3 7 7v33c0 4-3 7-7 7zm-34-14h27v-19h-27z"/></g></g><g><g><path d="m278 209h-41c-4 0-7-3-7-7v-33c0-4 3-7 7-7h41c4 0 7 3 7 7v33c0 4-3 7-7 7zm-34-14h27v-19h-27z"/></g><g><path d="m356 209h-41c-4 0-7-3-7-7v-33c0-4 3-7 7-7h41c4 0 7 3 7 7v33c0 4-3 7-7 7zm-34-14h27v-19h-27z"/></g><g><path d="m434 209h-41c-4 0-7-3-7-7v-33c0-4 3-7 7-7h41c4 0 7 3 7 7v33c0 4-3 7-7 7zm-34-14h27v-19h-27z"/></g></g><g><g><path d="m278 271h-41c-4 0-7-3-7-7v-33c0-4 3-7 7-7h41c4 0 7 3 7 7v33c0 4-3 7-7 7zm-34-14h27v-19h-27z"/></g><g><path d="m356 271h-41c-4 0-7-3-7-7v-33c0-4 3-7 7-7h41c4 0 7 3 7 7v33c0 4-3 7-7 7zm-34-14h27v-19h-27z"/></g><g><path d="m434 271h-41c-4 0-7-3-7-7v-33c0-4 3-7 7-7h41c4 0 7 3 7 7v33c0 4-3 7-7 7zm-34-14h27v-19h-27z"/></g></g><g><path d="m40 475c-4 0-7-3-7-7v-63c0-4 3-7 7-7s7 3 7 7v63c0 4-3 7-7 7zm0-174c-4 0-7-3-7-7v-193c0-4 3-7 7-7h159c4 0 7 3 7 7s-3 7-7 7h-152v186c0 4-3 7-7 7z"/></g><g><path d="m167 175h-96c-4 0-7-3-7-7v-37c0-4 3-7 7-7h96c4 0 7 3 7 7v37c0 4-3 7-7 7zm-89-14h82v-23h-82z"/></g><g><path d="m167 244h-96c-4 0-7-3-7-7v-37c0-4 3-7 7-7h96c4 0 7 3 7 7v37c0 4-3 7-7 7zm-89-14h82v-23h-82z"/></g></g></g></g></svg>