<svg enable-background="new 0 0 512 512" viewBox="0 0 512 512" xmlns="http://www.w3.org/2000/svg"><g id="_x34_83_x2C__Business_x2C__Distribute_x2C__Relationship_x2C__Share_x2C__Structure"><path d="m463.071 388.929c-3.906-3.904-10.236-3.904-14.143 0l-22.928 22.928-42.992-42.992c57.322-64.431 57.343-161.276 0-225.73l42.992-42.992 22.929 22.929c3.905 3.905 10.236 3.905 14.143 0l40-40c3.905-3.905 3.905-10.237 0-14.143l-60-60c-3.906-3.905-10.236-3.905-14.143 0l-40 40c-3.905 3.905-3.905 10.237 0 14.143l22.929 22.929-42.992 42.992c-64.434-57.323-161.277-57.341-225.731 0l-42.992-42.992 22.929-22.929c3.905-3.905 3.905-10.237 0-14.143l-40-40c-3.905-3.905-10.237-3.905-14.143 0l-60 60c-3.904 3.905-3.904 10.237 0 14.143l40 40c3.904 3.904 10.237 3.905 14.143 0l22.929-22.929 42.992 42.992c-57.322 64.434-57.342 161.276 0 225.73l-42.992 42.992-22.929-22.929c-3.905-3.904-10.237-3.904-14.143 0l-40 40c-3.904 3.905-3.904 10.237 0 14.143l60 60c3.906 3.905 10.237 3.904 14.143 0l40-40c3.905-3.905 3.905-10.237 0-14.143l-22.93-22.928 42.992-42.992c64.431 57.322 161.277 57.343 225.731 0l42.992 42.992-22.929 22.929c-3.905 3.905-3.905 10.237 0 14.143l40 40c3.907 3.905 10.236 3.904 14.143 0l60-60c3.905-3.905 3.905-10.237 0-14.143zm-27.071-358.786 45.857 45.858-25.857 25.857c-41.46-41.46-3.631-3.631-45.857-45.858zm-380 71.715-25.858-25.857 45.857-45.858 25.859 25.857c-5.069 5.07-40.747 40.747-45.858 45.858zm19.999 379.999-45.857-45.857 25.858-25.857c4.537 4.537 41.303 41.302 45.858 45.857zm30-225.857c0-82.71 67.29-150 150-150 82.711.001 150.001 67.29 150.001 150s-67.29 150-150.001 150c-82.709 0-150-67.29-150-150zm330.001 225.857-25.857-25.857 45.857-45.857 25.857 25.857z"/></g></svg>