<svg id="Capa_1" enable-background="new 0 0 512 512" viewBox="0 0 512 512" xmlns="http://www.w3.org/2000/svg"><g><circle cx="278.5" cy="256" r="7.5"/><circle cx="278.5" cy="392" r="7.5"/><ellipse cx="210.5" cy="373.779" rx="7.5" ry="7.5" transform="matrix(.365 -.931 .931 .365 -214.307 433.447)"/><path d="m342.75 144.716c3.587 2.071 8.174.842 10.245-2.745s.842-8.174-2.745-10.245-8.174-.842-10.245 2.745-.842 8.174 2.745 10.245z"/><path d="m400.03 194.495c3.587-2.071 4.816-6.658 2.745-10.245s-6.658-4.816-10.245-2.745-4.816 6.658-2.745 10.245c2.07 3.587 6.657 4.816 10.245 2.745z"/><ellipse cx="160.721" cy="324" rx="7.5" ry="7.5" transform="matrix(.996 -.095 .095 .996 -29.911 16.646)"/><circle cx="414.5" cy="256" r="7.5"/><path d="m400.03 317.505c-3.587-2.071-8.174-.842-10.245 2.745s-.842 8.174 2.745 10.245 8.174.842 10.245-2.745.842-8.174-2.745-10.245z"/><ellipse cx="160.721" cy="188" rx="7.5" ry="7.5" transform="matrix(.481 -.877 .877 .481 -81.435 238.357)"/><path d="m342.75 367.284c-3.587 2.071-4.816 6.658-2.745 10.245s6.658 4.816 10.245 2.745 4.816-6.658 2.745-10.245-6.658-4.816-10.245-2.745z"/><ellipse cx="210.5" cy="138.221" rx="7.5" ry="7.5" transform="matrix(.996 -.095 .095 .996 -12.125 20.52)"/><path d="m278.5 293.5c12.242 0 23.131-5.898 29.98-15h61.02c12.406 0 22.5-10.093 22.5-22.5s-10.094-22.5-22.5-22.5h-61.02c-2.129-2.83-4.649-5.35-7.48-7.48v-91.02c0-12.407-10.094-22.5-22.5-22.5s-22.5 10.093-22.5 22.5v91.02c-7.193 5.412-12.384 13.347-14.245 22.48h-99.255c-4.142 0-7.5 3.358-7.5 7.5s3.358 7.5 7.5 7.5h99.255c3.484 17.096 18.635 30 36.745 30zm91-45c4.136 0 7.5 3.364 7.5 7.5s-3.364 7.5-7.5 7.5h-54.255c.494-2.424.755-4.932.755-7.5s-.261-5.076-.755-7.5zm-98.5-113.5c0-4.136 3.364-7.5 7.5-7.5s7.5 3.364 7.5 7.5v84.255c-2.424-.494-4.932-.755-7.5-.755s-5.076.261-7.5.755zm7.5 98.5c12.406 0 22.5 10.093 22.5 22.5s-10.094 22.5-22.5 22.5-22.5-10.093-22.5-22.5 10.094-22.5 22.5-22.5z"/><path d="m509.355 220.773c-.431-2.842-2.447-5.188-5.193-6.041l-28.371-8.804c-4.804-18.985-12.321-37.111-22.396-53.999l13.854-26.316c1.339-2.544 1.106-5.629-.6-7.943-6.957-9.44-14.709-18.45-23.039-26.78-8.328-8.329-17.338-16.08-26.779-23.039-2.314-1.706-5.4-1.938-7.943-.6l-26.318 13.853c-16.89-10.075-35.016-17.593-53.999-22.396l-8.804-28.371c-.852-2.746-3.198-4.763-6.04-5.193-11.592-1.754-23.444-2.644-35.227-2.644-62.37 0-121.007 24.288-165.109 68.391-11.595 11.594-21.805 24.202-30.579 37.609h-75.312c-4.142 0-7.5 3.358-7.5 7.5s3.358 7.5 7.5 7.5h66.285c-7.885 14.3-14.229 29.367-18.926 45h-47.359c-4.142 0-7.5 3.358-7.5 7.5s3.358 7.5 7.5 7.5h43.401c-3.347 14.638-5.29 29.692-5.769 45h-37.632c-4.142 0-7.5 3.358-7.5 7.5s3.358 7.5 7.5 7.5h97.672c3.942 92.202 80.173 166 173.328 166 95.668 0 173.5-77.832 173.5-173.5s-77.832-173.5-173.5-173.5c-93.155 0-169.385 73.798-173.328 166h-45.029c3.969-117.021 100.387-211 218.357-211 9.469 0 18.984.614 28.351 1.826l8.656 27.895c.791 2.55 2.878 4.487 5.479 5.086 20.294 4.674 39.582 12.673 57.331 23.776 2.262 1.417 5.109 1.521 7.471.278l25.876-13.621c7.483 5.768 14.646 12.063 21.339 18.756 6.694 6.694 12.988 13.856 18.756 21.338l-13.621 25.876c-1.243 2.363-1.138 5.208.278 7.471 11.103 17.747 19.103 37.035 23.777 57.331.6 2.602 2.536 4.688 5.086 5.479l27.895 8.656c1.213 9.371 1.826 18.887 1.826 28.353s-.613 18.981-1.826 28.351l-27.895 8.655c-2.55.791-4.486 2.878-5.086 5.479-4.675 20.296-12.675 39.585-23.777 57.332-1.416 2.263-1.521 5.108-.278 7.471l13.621 25.876c-5.768 7.482-12.062 14.644-18.757 21.338-6.692 6.693-13.854 12.988-21.338 18.756l-25.876-13.621c-2.361-1.243-5.208-1.138-7.471.278-17.749 11.103-37.037 19.103-57.331 23.776-2.602.599-4.688 2.536-5.479 5.086l-8.656 27.895c-9.366 1.212-18.882 1.826-28.351 1.826-109.141 0-202.25-81.461-216.579-189.486-.544-4.105-4.31-6.984-8.421-6.449-4.106.545-6.993 4.315-6.449 8.421.962 7.255 2.272 14.431 3.903 21.514h-43.454c-4.142 0-7.5 3.358-7.5 7.5s3.358 7.5 7.5 7.5h47.438c4.723 15.649 11.084 30.726 18.943 45h-66.381c-4.142 0-7.5 3.358-7.5 7.5s3.358 7.5 7.5 7.5h75.375c11.422 17.503 25.232 33.543 41.166 47.61 42.651 37.653 97.505 58.39 154.459 58.39 11.783 0 23.635-.89 35.228-2.645 2.842-.43 5.188-2.447 6.04-5.193l8.804-28.371c18.983-4.802 37.109-12.32 53.999-22.396l26.316 13.853c2.545 1.339 5.629 1.106 7.943-.6 9.441-6.959 18.451-14.71 26.778-23.039 8.331-8.33 16.083-17.34 23.04-26.78 1.706-2.314 1.938-5.399.6-7.943l-13.854-26.316c10.075-16.888 17.593-35.014 22.396-54l28.371-8.803c2.745-.852 4.763-3.198 5.193-6.041 1.756-11.593 2.646-23.445 2.646-35.224s-.89-23.631-2.645-35.227zm-230.855-123.273c87.397 0 158.5 71.103 158.5 158.5s-71.103 158.5-158.5 158.5-158.5-71.103-158.5-158.5 71.103-158.5 158.5-158.5z"/></g></svg>