<svg id="Capa_1" enable-background="new 0 0 512 512" viewBox="0 0 512 512" xmlns="http://www.w3.org/2000/svg"><g><g><path d="m129.262 345.801h61.746c4.135 0 7.486-3.351 7.486-7.486s-3.351-7.486-7.486-7.486h-61.746c-4.135 0-7.486 3.351-7.486 7.486s3.351 7.486 7.486 7.486z"/><path d="m215.512 360.515h-98.228c-4.135 0-7.486 3.351-7.486 7.486s3.351 7.486 7.486 7.486h98.228c4.135 0 7.486-3.351 7.486-7.486s-3.351-7.486-7.486-7.486z"/><path d="m489.518 274.565h-31.245l20.34-118.493c.072-.418.108-.842.108-1.266 0-13.837-11.257-25.094-25.094-25.094h-54.485v-15.34c0-13.837-11.257-25.094-25.094-25.094h-90.348l-12.658-31.934c-3.145-7.93-10.689-13.055-19.219-13.055h-199.135c-11.399 0-20.674 9.274-20.674 20.675v18.612c0 3.144-2.559 5.703-5.703 5.703h-1.217c-13.837-.001-25.094 11.256-25.094 25.093v270.097c0 20.387 16.587 36.974 36.974 36.974h250.786v23.788c0 12.396 10.085 22.482 22.482 22.482h179.276c12.396 0 22.482-10.085 22.482-22.482v-148.185c0-12.396-10.085-22.481-22.482-22.481zm-237.695-215.305c2.353 0 4.435 1.414 5.302 3.602l10.471 26.417h-85.932c-2.353 0-4.434-1.415-5.301-3.601l-10.471-26.418zm245.205 385.97c0 4.142-3.369 7.51-7.51 7.51h-179.276c-4.142 0-7.51-3.369-7.51-7.51v-28.531l40.362-34.441c2.947-2.518 7.323-2.434 10.176.189l58.58 53.89c1.439 1.324 3.255 1.977 5.067 1.977 2.021 0 4.035-.813 5.511-2.417 2.799-3.043 2.601-7.778-.441-10.578l-12.878-11.847 36.58-31.214c2.948-2.518 7.325-2.434 10.176.189l41.164 37.868v24.915zm0-45.258-31.028-28.543c-8.418-7.746-21.33-7.985-30.031-.56l-37.96 32.392-34.604-31.833c-8.42-7.746-21.33-7.985-30.031-.56l-30.643 26.148v-33.524c0-4.135-3.351-7.486-7.486-7.486s-7.486 3.351-7.486 7.486v42.977h-221.635c1.749-2.515 3.296-5.339 4.628-8.46 1.557-3.642 2.695-7.555 3.481-11.963l41.252-232.432c.591-5.092 4.913-8.932 10.053-8.932h205.689c4.135 0 7.486-3.351 7.486-7.486s-3.351-7.486-7.486-7.486h-205.689c-12.741 0-23.457 9.534-24.924 22.175l-41.12 231.532c-.584 3.278-1.406 6.127-2.51 8.713-4.179 9.784-10.536 14.341-20.008 14.341h-.003c-12.132 0-22.002-9.87-22.002-22.002v-270.097c0-5.581 4.541-10.122 10.122-10.122h1.217c11.4 0 20.675-9.274 20.675-20.675v-18.612c0-3.144 2.558-5.703 5.702-5.703h93.225c2.353 0 4.435 1.414 5.301 3.602l11.231 28.333c3.144 7.93 10.689 13.055 19.219 13.055h192.385c5.581 0 10.122 4.541 10.122 10.122v15.34h-17.886c-4.135 0-7.486 3.351-7.486 7.486s3.351 7.486 7.486 7.486h87.343c5.397 0 9.82 4.245 10.108 9.571l-20.652 120.311h-132.841c-12.396 0-22.482 10.085-22.482 22.481v31.604c0 4.135 3.351 7.486 7.486 7.486s7.486-3.351 7.486-7.486v-31.604c0-4.141 3.369-7.51 7.51-7.51h179.276c4.142 0 7.51 3.369 7.51 7.51z"/><path d="m453.478 298.049c-14.746 0-26.743 11.997-26.743 26.743 0 14.747 11.997 26.744 26.743 26.744s26.744-11.998 26.744-26.744-11.997-26.743-26.744-26.743zm0 38.516c-6.491 0-11.771-5.281-11.771-11.773 0-6.49 5.281-11.771 11.771-11.771 6.492 0 11.773 5.281 11.773 11.771 0 6.492-5.281 11.773-11.773 11.773z"/></g></g></svg>