<svg id="Layer_1" enable-background="new 0 0 48 48" height="512" viewBox="0 0 48 48" width="512" xmlns="http://www.w3.org/2000/svg"><g><g><path d="m24 47.5c-2.3 0-4.4-.9-6-2.5-1.2-1.2-2.9-1.9-4.6-1.9-4.7 0-8.5-3.8-8.5-8.5 0-1.7-.7-3.4-1.9-4.6-3.3-3.3-3.3-8.7 0-12 1.2-1.2 1.9-2.9 1.9-4.6 0-4.7 3.8-8.5 8.5-8.5 1.7 0 3.4-.7 4.6-1.9 1.6-1.6 3.7-2.5 6-2.5s4.4.9 6 2.5c1.2 1.2 2.9 1.9 4.6 1.9 4.7 0 8.5 3.8 8.5 8.5 0 1.7.7 3.4 1.9 4.6 3.3 3.3 3.3 8.7 0 12-1.2 1.2-1.9 2.9-1.9 4.6 0 4.7-3.8 8.5-8.5 8.5-1.7 0-3.4.7-4.6 1.9-1.6 1.6-3.7 2.5-6 2.5zm0-45c-1.7 0-3.4.7-4.6 1.9-1.6 1.6-3.7 2.5-6 2.5-3.6 0-6.5 2.9-6.5 6.5 0 2.3-.9 4.4-2.5 6-2.5 2.5-2.5 6.7 0 9.2 1.6 1.6 2.5 3.7 2.5 6 0 3.6 2.9 6.5 6.5 6.5 2.3 0 4.4.9 6 2.5 1.2 1.2 2.9 1.9 4.6 1.9 1.7 0 3.4-.7 4.6-1.9 1.6-1.6 3.7-2.5 6-2.5 3.6 0 6.5-2.9 6.5-6.5 0-2.3.9-4.4 2.5-6 2.5-2.5 2.5-6.7 0-9.2-1.6-1.6-2.5-3.7-2.5-6 0-3.6-2.9-6.5-6.5-6.5-2.3 0-4.4-.9-6-2.5-1.2-1.2-2.9-1.9-4.6-1.9z" fill="rgb(0,0,0)"/></g><g><g><path d="m11.4 33.8-3.4-9.1 1.8-.7 6 4.8-2.2-6.1 1.7-.6 3.3 9.2-1.9.7-5.9-4.6 2.2 6z" fill="rgb(0,0,0)"/></g><g><path d="m20.6 30.5-3.3-9.2 6.8-2.5.6 1.5-4.9 1.8.7 2 4.6-1.7.6 1.5-4.7 1.9.9 2.5 5.1-1.9.6 1.5z" fill="rgb(0,0,0)"/></g><g><path d="m30.4 26.9-5.5-8.4 1.9-.7 3.7 5.8-.6-6.9 2.2-.8 3.9 5.8-1-6.9 1.9-.7 1.1 10-2 .7-4.3-6.2.7 7.5z" fill="rgb(0,0,0)"/></g></g></g></svg>